{"title":"London.River.2009.SWESUB.DVDRip.XviD.AC3.(5.1)-Zen_Bud","uid":5748968,"size":1468955536,"categoryP":"video","categoryS":"movies","magnet":"?xt=urn:btih:709862ac880a59fe784ddd59582f262100967c8d&amp;dn=London.River.2009.SWESUB.DVDRip.XviD.AC3.%285.1%29-Zen_Bud&amp;tr=udp%3A%2F%2Ftracker.openbittorrent.com%3A80&amp;tr=udp%3A%2F%2Fopen.demonii.com%3A1337&amp;tr=udp%3A%2F%2Ftracker.coppersurfer.tk%3A6969&amp;tr=udp%3A%2F%2Fexodus.desync.com%3A6969","seeders":0,"leechers":0,"uploader":"Zen_Bud","files":-1,"time":1281340294,"description":"General\nComplete name                    : London River 2009.avi\nFormat                           : AVI\nFile size                        : 1.37 GiB\nDuration                         : 1h 24mn\nOverall bit rate                 : 2 307 Kbps\n\nVideo\n\nFormat                           : MPEG-4 Visual\nCodec ID/Hint                    : XviD\nDuration                         : 1h 24mn\nBit rate                         : 1 849 Kbps\nWidth                            : 720 pixels\nHeight                           : 554 pixels\nDisplay aspect ratio             : 16:9\nStream size                      : 1.10 GiB (80%)\nWriting library                  : XviD 1.1.2 (UTC 2006-11-01)\n\nAudio\n\nFormat                           : AC-3\nDuration                         : 1h 24mn\nBit rate                         : 448 Kbps\nChannel(s)                       : 6 channels\nChannel positions                : Front: L C R, Side: L R, LFE\nSampling rate                    : 48.0 KHz\nStream size                      : 272 MiB (19%)\n\n\n","torrent":{"xt":"urn:btih:709862ac880a59fe784ddd59582f262100967c8d","amp;dn":"London.River.2009.SWESUB.DVDRip.XviD.AC3.%285.1%29-Zen_Bud","amp;tr":["udp%3A%2F%2Ftracker.openbittorrent.com%3A80","udp%3A%2F%2Fopen.demonii.com%3A1337","udp%3A%2F%2Ftracker.coppersurfer.tk%3A6969","udp%3A%2F%2Fexodus.desync.com%3A6969"],"infoHash":"709862ac880a59fe784ddd59582f262100967c8d","infoHashBuffer":{"type":"Buffer","data":[112,152,98,172,136,10,89,254,120,77,221,89,88,47,38,33,0,150,124,141]},"announce":[],"urlList":[]}}